HIERARCHY
ROOT Hips
{
  OFFSET 5.80788e-005 67.184 3.4734
  CHANNELS 6 Xposition Yposition Zposition Zrotation Xrotation Yrotation
  JOINT Chest
  {
    OFFSET 0 8.7983 -4.7612
    CHANNELS 6 Xposition Yposition Zposition Zrotation Xrotation Yrotation
    JOINT Chest2
    {
      OFFSET 0 8.0291 0.4195
      CHANNELS 6 Xposition Yposition Zposition Zrotation Xrotation Yrotation
      JOINT Chest3
      {
        OFFSET 0 9.9351 -2.2114
        CHANNELS 6 Xposition Yposition Zposition Zrotation Xrotation Yrotation
        JOINT Neck
        {
          OFFSET 0 22.3885 -0.4656
          CHANNELS 6 Xposition Yposition Zposition Zrotation Xrotation Yrotation
          JOINT Head
          {
            OFFSET -0.0001 12.643 3.4389
            CHANNELS 6 Xposition Yposition Zposition Zrotation Xrotation Yrotation
            End Site
            {
              OFFSET 0.0001 17.6655 0.5274
            }
          }
        }
        JOINT LeftCollar
        {
          OFFSET 2.2603 21.606 7.4023
          CHANNELS 6 Xposition Yposition Zposition Zrotation Xrotation Yrotation
          JOINT LeftShoulder
          {
            OFFSET 13.5163 -1.1332 -5.0146
            CHANNELS 6 Xposition Yposition Zposition Zrotation Xrotation Yrotation
            JOINT LeftElbow
            {
              OFFSET -0.0995 -28.05 -0.2431
              CHANNELS 6 Xposition Yposition Zposition Zrotation Xrotation Yrotation
              JOINT LeftWrist
              {
                OFFSET 0.0679 -23.3996 -0.1402
                CHANNELS 6 Xposition Yposition Zposition Zrotation Xrotation Yrotation
                JOINT LeftFinger1
                {
                  OFFSET 0.7932 -9.069 2.5189
                  CHANNELS 6 Xposition Yposition Zposition Zrotation Xrotation Yrotation
                  JOINT LeftFinger11
                  {
                    OFFSET -0.8272 -3.3923 0.5977
                    CHANNELS 6 Xposition Yposition Zposition Zrotation Xrotation Yrotation
                    JOINT LeftFinger12
                    {
                      OFFSET -0.5649 -2.3158 0.4082
                      CHANNELS 6 Xposition Yposition Zposition Zrotation Xrotation Yrotation
                      End Site
                      {
                        OFFSET -0.4919 -1.6479 0.2673
                      }
                    }
                  }
                }
                JOINT LeftFinger2
                {
                  OFFSET 0.9159 -9.2044 0.2193
                  CHANNELS 6 Xposition Yposition Zposition Zrotation Xrotation Yrotation
                  JOINT LeftFinger21
                  {
                    OFFSET 0.0117 -4.1944 -0.0248
                    CHANNELS 6 Xposition Yposition Zposition Zrotation Xrotation Yrotation
                    JOINT LeftFinger22
                    {
                      OFFSET 0.0071 -2.3249 -0.0142
                      CHANNELS 6 Xposition Yposition Zposition Zrotation Xrotation Yrotation
                      End Site
                      {
                        OFFSET -0.1475 -2.0882 0.0028
                      }
                    }
                  }
                }
                JOINT LeftFinger3
                {
                  OFFSET 0.6113 -8.7231 -2.0637
                  CHANNELS 6 Xposition Yposition Zposition Zrotation Xrotation Yrotation
                  JOINT LeftFinger31
                  {
                    OFFSET -0.1927 -3.8059 -0.2383
                    CHANNELS 6 Xposition Yposition Zposition Zrotation Xrotation Yrotation
                    JOINT LeftFinger32
                    {
                      OFFSET -0.1091 -2.1688 -0.1362
                      CHANNELS 6 Xposition Yposition Zposition Zrotation Xrotation Yrotation
                      End Site
                      {
                        OFFSET -0.2358 -1.9176 -0.0906
                      }
                    }
                  }
                }
                JOINT LeftFinger4
                {
                  OFFSET -0.6151 -8.0947 -3.5641
                  CHANNELS 6 Xposition Yposition Zposition Zrotation Xrotation Yrotation
                  JOINT LeftFinger41
                  {
                    OFFSET -0.4882 -2.341 -0.6462
                    CHANNELS 6 Xposition Yposition Zposition Zrotation Xrotation Yrotation
                    JOINT LeftFinger42
                    {
                      OFFSET -0.3575 -1.7167 -0.4742
                      CHANNELS 6 Xposition Yposition Zposition Zrotation Xrotation Yrotation
                      End Site
                      {
                        OFFSET -0.4187 -1.5237 -0.3496
                      }
                    }
                  }
                }
                JOINT LeftFinger0
                {
                  OFFSET -1.42 -1.8761 1.4223
                  CHANNELS 6 Xposition Yposition Zposition Zrotation Xrotation Yrotation
                  JOINT LeftFinger01
                  {
                    OFFSET -1.1471 -3.4929 2.6334
                    CHANNELS 6 Xposition Yposition Zposition Zrotation Xrotation Yrotation
                    JOINT LeftFinger02
                    {
                      OFFSET -0.823 -2.3 1.6571
                      CHANNELS 6 Xposition Yposition Zposition Zrotation Xrotation Yrotation
                      End Site
                      {
                        OFFSET -0.5822 -1.6914 1.1582
                      }
                    }
                  }
                }
              }
            }
          }
        }
        JOINT RightCollar
        {
          OFFSET -2.2603 21.606 7.4023
          CHANNELS 6 Xposition Yposition Zposition Zrotation Xrotation Yrotation
          JOINT RightShoulder
          {
            OFFSET -13.5187 -1.1334 -5.0155
            CHANNELS 6 Xposition Yposition Zposition Zrotation Xrotation Yrotation
            JOINT RightElbow
            {
              OFFSET 0.0994 -28.0499 -0.2431
              CHANNELS 6 Xposition Yposition Zposition Zrotation Xrotation Yrotation
              JOINT RightWrist
              {
                OFFSET -0.0679 -23.3996 -0.1402
                CHANNELS 6 Xposition Yposition Zposition Zrotation Xrotation Yrotation
                JOINT RightFinger1
                {
                  OFFSET -0.7932 -9.0691 2.5189
                  CHANNELS 6 Xposition Yposition Zposition Zrotation Xrotation Yrotation
                  JOINT RightFinger11
                  {
                    OFFSET 0.8272 -3.3923 0.5977
                    CHANNELS 6 Xposition Yposition Zposition Zrotation Xrotation Yrotation
                    JOINT RightFinger12
                    {
                      OFFSET 0.565 -2.3158 0.4082
                      CHANNELS 6 Xposition Yposition Zposition Zrotation Xrotation Yrotation
                      End Site
                      {
                        OFFSET 0.4919 -1.6479 0.2673
                      }
                    }
                  }
                }
                JOINT RightFinger2
                {
                  OFFSET -0.916 -9.2044 0.2193
                  CHANNELS 6 Xposition Yposition Zposition Zrotation Xrotation Yrotation
                  JOINT RightFinger21
                  {
                    OFFSET -0.0117 -4.1944 -0.0248
                    CHANNELS 6 Xposition Yposition Zposition Zrotation Xrotation Yrotation
                    JOINT RightFinger22
                    {
                      OFFSET -0.0071 -2.3249 -0.0142
                      CHANNELS 6 Xposition Yposition Zposition Zrotation Xrotation Yrotation
                      End Site
                      {
                        OFFSET 0.1475 -2.0882 0.0028
                      }
                    }
                  }
                }
                JOINT RightFinger3
                {
                  OFFSET -0.6113 -8.7231 -2.0637
                  CHANNELS 6 Xposition Yposition Zposition Zrotation Xrotation Yrotation
                  JOINT RightFinger31
                  {
                    OFFSET 0.1927 -3.8059 -0.2383
                    CHANNELS 6 Xposition Yposition Zposition Zrotation Xrotation Yrotation
                    JOINT RightFinger32
                    {
                      OFFSET 0.1091 -2.1688 -0.1362
                      CHANNELS 6 Xposition Yposition Zposition Zrotation Xrotation Yrotation
                      End Site
                      {
                        OFFSET 0.2358 -1.9176 -0.0906
                      }
                    }
                  }
                }
                JOINT RightFinger4
                {
                  OFFSET 0.6151 -8.0947 -3.564
                  CHANNELS 6 Xposition Yposition Zposition Zrotation Xrotation Yrotation
                  JOINT RightFinger41
                  {
                    OFFSET 0.4882 -2.341 -0.6462
                    CHANNELS 6 Xposition Yposition Zposition Zrotation Xrotation Yrotation
                    JOINT RightFinger42
                    {
                      OFFSET 0.3574 -1.7166 -0.4742
                      CHANNELS 6 Xposition Yposition Zposition Zrotation Xrotation Yrotation
                      End Site
                      {
                        OFFSET 0.4187 -1.5237 -0.3496
                      }
                    }
                  }
                }
                JOINT RightFinger0
                {
                  OFFSET 1.4199 -1.8761 1.4221
                  CHANNELS 6 Xposition Yposition Zposition Zrotation Xrotation Yrotation
                  JOINT RightFinger01
                  {
                    OFFSET 1.1472 -3.4929 2.6336
                    CHANNELS 6 Xposition Yposition Zposition Zrotation Xrotation Yrotation
                    JOINT RightFinger02
                    {
                      OFFSET 0.8229 -2.3 1.6571
                      CHANNELS 6 Xposition Yposition Zposition Zrotation Xrotation Yrotation
                      End Site
                      {
                        OFFSET 0.5822 -1.6914 1.1582
                      }
                    }
                  }
                }
              }
            }
          }
        }
      }
    }
  }
  JOINT RightHip
  {
    OFFSET -9.412 3.9771 -0.7758
    CHANNELS 6 Xposition Yposition Zposition Zrotation Xrotation Yrotation
    JOINT RightKnee
    {
      OFFSET -0.7531 -40.938 0
      CHANNELS 6 Xposition Yposition Zposition Zrotation Xrotation Yrotation
      JOINT RightAnkle
      {
        OFFSET 0 -40.1986 0
        CHANNELS 6 Xposition Yposition Zposition Zrotation Xrotation Yrotation
        JOINT RightToe
        {
          OFFSET 0 -4.4182 9.239
          CHANNELS 6 Xposition Yposition Zposition Zrotation Xrotation Yrotation
          End Site
          {
            OFFSET 0 0 6.1981
          }
        }
      }
    }
  }
  JOINT LeftHip
  {
    OFFSET 9.4119 3.9773 -0.7758
    CHANNELS 6 Xposition Yposition Zposition Zrotation Xrotation Yrotation
    JOINT LeftKnee
    {
      OFFSET 0.7532 -40.9383 0
      CHANNELS 6 Xposition Yposition Zposition Zrotation Xrotation Yrotation
      JOINT LeftAnkle
      {
        OFFSET 0 -40.1986 0
        CHANNELS 6 Xposition Yposition Zposition Zrotation Xrotation Yrotation
        JOINT LeftToe
        {
          OFFSET 0 -4.4182 9.239
          CHANNELS 6 Xposition Yposition Zposition Zrotation Xrotation Yrotation
          End Site
          {
            OFFSET 0 0 6.1981
          }
        }
      }
    }
  }
}
MOTION
Frames:	4
Frame Time:	0.0333333
-0.00339369 4.21211 6.97464 180 -74.9926 180 -4.33681e-019 8.7983 -4.7612 -0.266141 5.24915 -0.35745 1.04083e-017 8.0291 0.4195 -0.502416 10.4998 -0.694697 -5.55112e-017 9.9351 -2.2114 -0.502417 10.4998 -0.694698 -2.22045e-016 22.3885 -0.4656 0.9437 -4.08948 -0.0327636 -0.0001 12.643 3.4389 2.65976e-009 15.2653 4.22732e-007 2.2603 21.606 7.4023 -1.81512 -8.90686 -23.5766 13.5163 -1.1332 -5.0146 90.8186 -33.3756 31.8301 -0.0995 -28.05 -0.2431 -35.4084 -47.3008 17.2436 0.0679 -23.3996 -0.1402 -11.5326 -25.6784 10.2247 0.7932 -9.069 2.5189 -6.11053e-007 1.95659e-008 -1.53858e-006 -0.8272 -3.3923 0.5977 2.21142e-006 -2.01062e-006 -1.46351e-006 -0.5649 -2.3158 0.4082 -7.95139e-016 6.36111e-015 3.18055e-015 0.9159 -9.2044 0.2193 -6.11053e-007 1.95659e-008 -1.53858e-006 0.0117 -4.1944 -0.0248 -0.012827 0.00232665 8.76938e-005 0.0071 -2.3249 -0.0142 7.95139e-016 9.54166e-015 -1.59028e-015 0.6113 -8.7231 -2.0637 -6.11053e-007 1.95659e-008 -1.53858e-006 -0.1927 -3.8059 -0.2383 -0.0160106 0.00299458 0.000856442 -0.1091 -2.1688 -0.1362 2.38542e-015 6.36111e-015 4.77083e-015 -0.6151 -8.0947 -3.5641 -6.11053e-007 1.95659e-008 -1.53858e-006 -0.4882 -2.341 -0.6462 -0.0126251 0.00313613 0.0028413 -0.3575 -1.7167 -0.4742 -7.95139e-015 0 1.59028e-015 -1.42 -1.8761 1.4223 -6.11053e-007 1.95659e-008 -1.53858e-006 -1.1471 -3.4929 2.6334 2.21142e-006 -2.01062e-006 -1.46351e-006 -0.823 -2.3 1.6571 -7.95139e-016 6.36111e-015 3.18055e-015 -2.2603 21.606 7.4023 19.0077 -4.60595 28.6916 -13.5187 -1.1334 -5.0155 -32.0316 -12.9165 4.51437 0.0994 -28.0499 -0.2431 26.1445 -15.0753 -37.1301 -0.0679 -23.3996 -0.1402 44.6306 -1.95704 21.209 -0.7932 -9.0691 2.5189 -4.77083e-015 -3.18055e-015 -0 0.8272 -3.3923 0.5977 -3.18055e-015 0 -3.18055e-015 0.565 -2.3158 0.4082 -3.18055e-015 -4.77083e-015 -0 -0.916 -9.2044 0.2193 -4.77083e-015 -3.18055e-015 -0 -0.0117 -4.1944 -0.0248 0.0129714 0.00233311 -8.64068e-005 -0.0071 -2.3249 -0.0142 0 0 -0 -0.6113 -8.7231 -2.0637 -4.77083e-015 -3.18055e-015 -0 0.1927 -3.8059 -0.2383 0.0163396 0.00304282 -0.000878464 0.1091 -2.1688 -0.1362 1.59028e-015 0 -3.18055e-015 0.6151 -8.0947 -3.564 -4.77083e-015 -3.18055e-015 -0 0.4882 -2.341 -0.6462 0.0145824 0.00368951 -0.00325729 0.3574 -1.7166 -0.4742 -2.81061e-006 -4.94352e-006 -8.26617e-006 1.4199 -1.8761 1.4221 -4.77083e-015 -3.18055e-015 -0 1.1472 -3.4929 2.6336 -3.18055e-015 0 -3.18055e-015 0.8229 -2.3 1.6571 -3.18055e-015 -4.77083e-015 -0 -9.412 3.9771 -0.7758 -13.491 -23.8767 -15.0264 -0.7531 -40.938 0 -172.476 63.2073 171 0 -40.1986 0 -11.0971 1.68826 0.0322398 -8.88178e-016 -4.4182 9.239 3.16655e-007 1.81159e-007 4.78608e-006 9.4119 3.9773 -0.7758 17.1989 -32.3373 20.0932 0.7532 -40.9383 4.88498e-015 173.367 47.5238 -170.977 -1.77636e-015 -40.1986 0 13.4334 -0.207383 0.755783 1.77636e-015 -4.4182 9.239 -4.03669e-008 5.82867e-009 -8.45213e-007 
-0.00339368 4.21211 6.97464 180 -74.9926 180 -4.33681e-019 8.7983 -4.7612 -0.265929 5.29058 -0.358855 6.93889e-018 8.0291 0.4195 -0.501641 10.5827 -0.697415 0 9.9351 -2.2114 -0.501643 10.5827 -0.697418 1.11022e-016 22.3885 -0.4656 0.943584 -3.88202 -0.0362319 -0.0001 12.643 3.4389 -4.73774e-007 15.5143 -2.99352e-007 2.2603 21.606 7.4023 -1.69737 -9.1047 -23.6026 13.5163 -1.1332 -5.0146 90.8185 -33.3755 31.8301 -0.0995 -28.05 -0.2431 -35.4084 -47.3009 17.2435 0.0679 -23.3996 -0.1402 -11.496 -25.7685 10.3166 0.7932 -9.069 2.5189 7.15625e-015 -3.18055e-015 6.36111e-015 -0.8272 -3.3923 0.5977 -2.81916e-006 -1.62319e-006 -7.45119e-008 -0.5649 -2.3158 0.4082 -1.59642e-006 -2.65059e-006 3.0023e-006 0.9159 -9.2044 0.2193 7.15625e-015 -3.18055e-015 6.36111e-015 0.0117 -4.1944 -0.0248 -0.012837 0.00232808 8.66567e-005 0.0071 -2.3249 -0.0142 -7.15625e-015 -6.36111e-015 -4.77083e-015 0.6113 -8.7231 -2.0637 7.15625e-015 -3.18055e-015 6.36111e-015 -0.1927 -3.8059 -0.2383 -0.0160785 0.00300158 0.00085697 -0.1091 -2.1688 -0.1362 -2.20726e-006 -5.23508e-006 1.46375e-006 -0.6151 -8.0947 -3.5641 7.15625e-015 -3.18055e-015 6.36111e-015 -0.4882 -2.341 -0.6462 -0.012659 0.0031312 0.0028363 -0.3575 -1.7167 -0.4742 -9.85008e-007 2.92865e-006 4.54059e-006 -1.42 -1.8761 1.4223 7.15625e-015 -3.18055e-015 6.36111e-015 -1.1471 -3.4929 2.6334 -2.81916e-006 -1.62319e-006 -7.45119e-008 -0.823 -2.3 1.6571 -1.59642e-006 -2.65059e-006 3.0023e-006 -2.2603 21.606 7.4023 18.9949 -4.80758 28.7628 -13.5187 -1.1334 -5.0155 -32.1313 -12.6971 4.52329 0.0994 -28.0499 -0.2431 26.1446 -15.0753 -37.1301 -0.0679 -23.3996 -0.1402 44.401 -1.15803 21.0783 -0.7932 -9.0691 2.5189 -4.77083e-015 1.59028e-015 6.36111e-015 0.8272 -3.3923 0.5977 -1.59028e-015 1.59028e-015 -0 0.565 -2.3158 0.4082 -1.59028e-015 3.18055e-015 3.18055e-015 -0.916 -9.2044 0.2193 -4.77083e-015 1.59028e-015 6.36111e-015 -0.0117 -4.1944 -0.0248 0.0129438 0.00231386 -8.61852e-005 -0.0071 -2.3249 -0.0142 3.18055e-015 0 6.36111e-015 -0.6113 -8.7231 -2.0637 -4.77083e-015 1.59028e-015 6.36111e-015 0.1927 -3.8059 -0.2383 0.0163191 0.00303025 -0.000867193 0.1091 -2.1688 -0.1362 3.18055e-015 3.18055e-015 -1.59028e-014 0.6151 -8.0947 -3.564 -4.77083e-015 1.59028e-015 6.36111e-015 0.4882 -2.341 -0.6462 0.0146126 0.00367993 -0.00326947 0.3574 -1.7166 -0.4742 1.59028e-015 4.77083e-015 -3.18055e-015 1.4199 -1.8761 1.4221 -4.77083e-015 1.59028e-015 6.36111e-015 1.1472 -3.4929 2.6336 -1.59028e-015 1.59028e-015 -0 0.8229 -2.3 1.6571 -1.59028e-015 3.18055e-015 3.18055e-015 -9.412 3.9771 -0.7758 -13.2923 -23.9084 -14.8287 -0.7531 -40.938 1.33227e-015 -172.477 63.2072 170.998 -1.77636e-015 -40.1986 -7.10543e-015 -10.9032 1.70755 -0.0771509 1.77636e-015 -4.4182 9.239 8.96788e-009 -6.30559e-007 1.71573e-006 9.4119 3.9773 -0.7758 16.8802 -32.3962 19.794 0.7532 -40.9383 1.33227e-015 173.367 47.5241 -170.972 1.77636e-015 -40.1986 0 13.1516 -0.188103 0.867838 -8.88179e-016 -4.4182 9.239 -5.30398e-008 7.86507e-009 5.81351e-009 
-0.00339368 4.2121 6.97464 -180 -74.9926 -180 0 8.7983 -4.7612 -0.265712 5.32831 -0.36012 0 8.0291 0.4195 -0.500887 10.6581 -0.699866 -5.55112e-017 9.9351 -2.2114 -0.500888 10.6582 -0.699868 -5.55112e-017 22.3885 -0.4656 0.943498 -3.6932 -0.0393888 -0.0001 12.643 3.4389 4.84639e-007 15.7409 8.37968e-008 2.2603 21.606 7.4023 -1.59023 -9.28473 -23.6258 13.5163 -1.1332 -5.0146 90.8186 -33.3756 31.8302 -0.0995 -28.05 -0.2431 -35.4084 -47.3008 17.2436 0.0679 -23.3996 -0.1402 -11.4625 -25.8504 10.4003 0.7932 -9.069 2.5189 7.95139e-016 6.36111e-015 1.59028e-015 -0.8272 -3.3923 0.5977 2.38542e-015 3.18055e-015 1.59028e-015 -0.5649 -2.3158 0.4082 7.95139e-016 0 1.59028e-015 0.9159 -9.2044 0.2193 7.95139e-016 6.36111e-015 1.59028e-015 0.0117 -4.1944 -0.0248 -0.0128021 0.00232168 8.55995e-005 0.0071 -2.3249 -0.0142 1.43125e-014 -2.54444e-014 -1.59028e-015 0.6113 -8.7231 -2.0637 7.95139e-016 6.36111e-015 1.59028e-015 -0.1927 -3.8059 -0.2383 -0.0160293 0.00299571 0.000854469 -0.1091 -2.1688 -0.1362 -1.19271e-014 -3.18055e-015 7.95139e-015 -0.6151 -8.0947 -3.5641 7.95139e-016 6.36111e-015 1.59028e-015 -0.4882 -2.341 -0.6462 -0.0125995 0.00312901 0.00282944 -0.3575 -1.7167 -0.4742 1.03368e-014 0 -6.36111e-015 -1.42 -1.8761 1.4223 7.95139e-016 6.36111e-015 1.59028e-015 -1.1471 -3.4929 2.6334 2.38542e-015 3.18055e-015 1.59028e-015 -0.823 -2.3 1.6571 7.95139e-016 0 1.59028e-015 -2.2603 21.606 7.4023 18.9834 -4.99104 28.8276 -13.5187 -1.1334 -5.0155 -32.2217 -12.4973 4.53186 0.0994 -28.0499 -0.2431 26.1444 -15.0754 -37.13 -0.0679 -23.3996 -0.1402 44.1937 -0.429688 20.9622 -0.7932 -9.0691 2.5189 -1.08462e-006 -5.26633e-006 1.95736e-006 0.8272 -3.3923 0.5977 1.08462e-006 5.26633e-006 -1.95736e-006 0.565 -2.3158 0.4082 -1.08462e-006 -5.26633e-006 1.95736e-006 -0.916 -9.2044 0.2193 -1.08462e-006 -5.26633e-006 1.95736e-006 -0.0117 -4.1944 -0.0248 0.0129483 0.00232499 -8.86766e-005 -0.0071 -2.3249 -0.0142 -1.08412e-006 -4.08188e-006 1.95731e-006 -0.6113 -8.7231 -2.0637 -1.08462e-006 -5.26633e-006 1.95736e-006 0.1927 -3.8059 -0.2383 0.0163192 0.00303415 -0.000872694 0.1091 -2.1688 -0.1362 2.03952e-006 -4.22374e-006 1.87055e-006 0.6151 -8.0947 -3.564 -1.08462e-006 -5.26633e-006 1.95736e-006 0.4882 -2.341 -0.6462 0.0145781 0.00367229 -0.00325569 0.3574 -1.7166 -0.4742 4.93408e-006 -2.62308e-007 6.53812e-006 1.4199 -1.8761 1.4221 -1.08462e-006 -5.26633e-006 1.95736e-006 1.1472 -3.4929 2.6336 1.08462e-006 5.26633e-006 -1.95736e-006 0.8229 -2.3 1.6571 -1.08462e-006 -5.26633e-006 1.95736e-006 -9.412 3.9771 -0.7758 -13.1114 -23.9367 -14.6486 -0.7531 -40.938 -3.55271e-015 -172.477 63.2071 170.997 3.55271e-015 -40.1986 -7.10543e-015 -10.7268 1.72465 -0.17677 -1.77636e-015 -4.4182 9.239 -4.19161e-007 4.17237e-006 8.00567e-008 9.4119 3.9773 -0.7758 16.5895 -32.4492 19.5211 0.7532 -40.9383 -4.44089e-016 173.368 47.5238 -170.968 0 -40.1986 0 12.8951 -0.170995 0.969907 -1.77636e-015 -4.4182 9.239 5.30398e-008 -7.87965e-009 -5.81351e-009 
-0.00339365 4.2121 6.97464 180 -74.9926 180 0 8.7983 -4.7612 -0.265326 5.36607 -0.361179 0 8.0291 0.4195 -0.49981 10.7337 -0.70192 -2.77556e-017 9.9351 -2.2114 -0.499811 10.7337 -0.701922 0 22.3885 -0.4656 0.943437 -3.50444 -0.0425396 -0.0001 12.643 3.4389 3.03597e-007 15.9675 4.80279e-008 2.2603 21.606 7.4023 -1.48309 -9.46487 -23.6486 13.5163 -1.1332 -5.0146 90.8186 -33.3756 31.8302 -0.0995 -28.05 -0.2431 -35.4084 -47.3009 17.2436 0.0679 -23.3996 -0.1402 -11.4288 -25.9322 10.4841 0.7932 -9.069 2.5189 3.05958e-007 3.41636e-006 7.69048e-007 -0.8272 -3.3923 0.5977 -3.05958e-007 -3.41636e-006 -7.69048e-007 -0.5649 -2.3158 0.4082 3.05958e-007 3.41636e-006 7.69048e-007 0.9159 -9.2044 0.2193 3.05958e-007 3.41636e-006 7.69048e-007 0.0117 -4.1944 -0.0248 -0.0128522 0.00233172 8.73256e-005 0.0071 -2.3249 -0.0142 -3.0588e-007 1.00647e-008 -7.69061e-007 0.6113 -8.7231 -2.0637 3.05958e-007 3.41636e-006 7.69048e-007 -0.1927 -3.8059 -0.2383 -0.0160492 0.00299681 0.000858446 -0.1091 -2.1688 -0.1362 1.89479e-006 1.46718e-006 -2.23347e-006 -0.6151 -8.0947 -3.5641 3.05958e-007 3.41636e-006 7.69048e-007 -0.4882 -2.341 -0.6462 -0.0125974 0.00312724 0.00282353 -0.3575 -1.7167 -0.4742 -1.11319e-014 0 4.77083e-015 -1.42 -1.8761 1.4223 3.05958e-007 3.41636e-006 7.69048e-007 -1.1471 -3.4929 2.6334 -3.05958e-007 -3.41636e-006 -7.69048e-007 -0.823 -2.3 1.6571 3.05958e-007 3.41636e-006 7.69048e-007 -2.2603 21.606 7.4023 18.9722 -5.17459 28.8924 -13.5187 -1.1334 -5.0155 -32.3123 -12.2976 4.54066 0.0994001 -28.0499 -0.2431 26.1444 -15.0754 -37.13 -0.0679 -23.3996 -0.1402 43.9877 0.299662 20.8486 -0.793201 -9.0691 2.5189 1.81242e-005 1.27973e-005 9.22892e-006 0.827201 -3.3923 0.5977 -1.9355e-006 -4.21326e-007 -8.85087e-007 0.565 -2.3158 0.4082 -9.12912e-006 -1.60014e-005 -5.61623e-006 -0.916001 -9.2044 0.2193 1.81242e-005 1.27973e-005 9.22892e-006 -0.0117 -4.1944 -0.0248 0.0129433 0.00230487 -9.06095e-005 -0.00710001 -2.3249 -0.0142 -1.59028e-015 -7.95139e-015 6.36111e-015 -0.6113 -8.7231 -2.0637 1.81242e-005 1.27973e-005 9.22892e-006 0.1927 -3.8059 -0.2383 0.0163055 0.0030251 -0.000873993 0.1091 -2.1688 -0.1362 1.701e-006 3.13658e-007 6.63434e-006 0.615101 -8.0947 -3.564 1.81242e-005 1.27973e-005 9.22892e-006 0.4882 -2.341 -0.6462 0.0145817 0.00367026 -0.00327045 0.3574 -1.7166 -0.4742 1.93434e-006 1.00017e-006 8.85459e-007 1.4199 -1.8761 1.4221 1.81242e-005 1.27973e-005 9.22892e-006 1.1472 -3.4929 2.6336 -1.9355e-006 -4.21326e-007 -8.85087e-007 0.8229 -2.3 1.6571 -9.12912e-006 -1.60014e-005 -5.61623e-006 -9.412 3.9771 -0.7758 -12.9304 -23.9642 -14.4684 -0.7531 -40.938 -1.77636e-015 -172.477 63.2072 170.996 1.77636e-015 -40.1986 0 -10.5503 1.74155 -0.27644 8.88179e-016 -4.4182 9.239 -4.41391e-032 1.59028e-015 1.59028e-015 9.4119 3.9773 -0.7758 16.2986 -32.5003 19.2479 0.7532 -40.9383 6.21725e-015 173.367 47.5241 -170.964 0 -40.1986 7.10543e-015 12.6386 -0.154397 1.07206 -8.88179e-016 -4.4182 9.239 -1.0608e-007 -1.27074e-006 1.1627e-008 
